<svg xmlns="http://www.w3.org/2000/svg" viewBox="0 0 120 120" role="img" aria-label="Seasons logo">
  <defs><style>.arc{fill:none;stroke:#1F4D2E;stroke-width:5.5;stroke-linecap:round}.leaf{fill:#1F4D2E}.vein{fill:none;stroke:#FAF8F5;stroke-width:2.4;stroke-linecap:round}</style></defs>
  <path class="arc" d="M27 22 A48 48 0 0 1 50 11"/>
  <path class="arc" d="M70 11 A48 48 0 0 1 93 22"/>
  <path class="arc" d="M98 48 A48 48 0 0 1 91 76"/>
  <path class="arc" d="M72 96 A48 48 0 0 1 43 97"/>
  <path class="arc" d="M22 74 A48 48 0 0 1 21 47"/>
  <path class="leaf" d="M45 76 C45 51 59 35 78 29 C79 51 68 70 45 76 Z"/>
  <path class="vein" d="M38 86 C49 72 60 57 75 36"/>
</svg>